<svg width="22" height="22" viewBox="0 0 22 22" fill="none" xmlns="http://www.w3.org/2000/svg">
<g clip-path="url(#clip0_723_570)">
<path d="M15.8112 8.52249L10.8131 13.5206L9.56354 14.7702L8.31444 13.5206L6.23175 11.4379L7.4813 10.1884L9.56398 12.2711L14.5617 7.27295L15.8112 8.52249Z" fill="#01A777"/>
<path d="M4.25392 11.4341H0.773462C0.66406 11.4341 0.559139 11.3907 0.48178 11.3133C0.404422 11.2359 0.360962 11.131 0.360962 11.0216C0.360962 10.9122 0.404422 10.8073 0.48178 10.7299C0.559139 10.6526 0.66406 10.6091 0.773462 10.6091H4.25392C4.36332 10.6091 4.46824 10.6526 4.5456 10.7299C4.62296 10.8073 4.66642 10.9122 4.66642 11.0216C4.66642 11.131 4.62296 11.2359 4.5456 11.3133C4.46824 11.3907 4.36332 11.4341 4.25392 11.4341ZM21.2689 11.4341H17.789C17.7349 11.4341 17.6812 11.4235 17.6312 11.4027C17.5811 11.382 17.5356 11.3516 17.4973 11.3133C17.459 11.275 17.4286 11.2295 17.4079 11.1795C17.3872 11.1294 17.3765 11.0758 17.3765 11.0216C17.3765 10.9122 17.42 10.8073 17.4973 10.7299C17.5747 10.6526 17.6796 10.6091 17.789 10.6091H21.2689C21.3783 10.6091 21.4832 10.6526 21.5606 10.7299C21.6379 10.8073 21.6814 10.9122 21.6814 11.0216C21.6814 11.131 21.6379 11.2359 21.5606 11.3133C21.4832 11.3907 21.3783 11.4341 21.2689 11.4341ZM11.0215 4.66654C10.9121 4.66654 10.8072 4.62308 10.7298 4.54572C10.6525 4.46836 10.609 4.36344 10.609 4.25404V0.773584C10.609 0.664182 10.6525 0.559261 10.7298 0.481902C10.8072 0.404544 10.9121 0.361084 11.0215 0.361084C11.1309 0.361084 11.2358 0.404544 11.3132 0.481902C11.3905 0.559261 11.434 0.664182 11.434 0.773584V4.25404C11.434 4.36344 11.3905 4.46836 11.3132 4.54572C11.2358 4.62308 11.1309 4.66654 11.0215 4.66654ZM11.0215 21.7085C10.9121 21.7085 10.8072 21.6651 10.7298 21.5877C10.6525 21.5103 10.609 21.4054 10.609 21.296V17.7892C10.609 17.6798 10.6525 17.5748 10.7298 17.4975C10.8072 17.4201 10.9121 17.3767 11.0215 17.3767C11.2494 17.3767 11.434 17.5613 11.434 17.7892V21.296C11.434 21.4054 11.3905 21.5103 11.3132 21.5877C11.2358 21.6651 11.1309 21.7085 11.0215 21.7085ZM18.2923 18.6561C18.2382 18.6562 18.1845 18.6456 18.1344 18.6248C18.0844 18.6041 18.0389 18.5737 18.0006 18.5353L15.5394 16.0741C15.462 15.9967 15.4185 15.8918 15.4185 15.7824C15.4185 15.673 15.462 15.5681 15.5394 15.4907C15.6167 15.4133 15.7217 15.3699 15.8311 15.3699C15.9405 15.3699 16.0454 15.4133 16.1228 15.4907L18.584 17.952C18.6417 18.0096 18.681 18.0831 18.6969 18.1632C18.7128 18.2432 18.7046 18.3261 18.6734 18.4015C18.6422 18.4768 18.5893 18.5413 18.5215 18.5866C18.4537 18.6319 18.3739 18.6561 18.2923 18.6561ZM3.59188 18.4972C3.5103 18.4972 3.43056 18.473 3.36273 18.4277C3.2949 18.3824 3.24203 18.3179 3.21081 18.2426C3.17959 18.1672 3.17143 18.0843 3.18734 18.0043C3.20325 17.9242 3.24253 17.8507 3.30022 17.7931L5.76488 15.3284C5.84268 15.2532 5.94691 15.2116 6.05512 15.2125C6.16332 15.2134 6.26683 15.2568 6.34334 15.3333C6.41986 15.4098 6.46324 15.5134 6.46415 15.6216C6.46506 15.7298 6.42342 15.834 6.34821 15.9118L3.88355 18.3764C3.84529 18.4147 3.79982 18.4452 3.74977 18.4659C3.69972 18.4866 3.64606 18.4973 3.59188 18.4972ZM15.6186 6.46806C15.537 6.46807 15.4572 6.44388 15.3894 6.39856C15.3216 6.35324 15.2687 6.28881 15.2375 6.21344C15.2062 6.13807 15.1981 6.05513 15.214 5.97511C15.2299 5.89509 15.2692 5.82159 15.3268 5.7639L17.7877 3.30303C17.8652 3.22623 17.9699 3.18324 18.079 3.18348C18.1881 3.18371 18.2927 3.22715 18.3698 3.30428C18.4469 3.38141 18.4904 3.48597 18.4906 3.59505C18.4909 3.70414 18.4479 3.80889 18.3711 3.88636L15.9102 6.34723C15.872 6.38559 15.8265 6.41601 15.7765 6.43675C15.7264 6.45748 15.6727 6.46813 15.6186 6.46806ZM6.22814 6.65677C6.17396 6.65684 6.1203 6.6462 6.07025 6.62547C6.02019 6.60473 5.97473 6.5743 5.93648 6.53593L3.47836 4.07787C3.40101 4.00052 3.35756 3.8956 3.35756 3.78621C3.35756 3.67682 3.40101 3.5719 3.47836 3.49454C3.55572 3.4172 3.66063 3.37374 3.77003 3.37374C3.87942 3.37374 3.98433 3.4172 4.06169 3.49454L6.51975 5.9526C6.57743 6.01029 6.61671 6.08378 6.63263 6.16379C6.64854 6.2438 6.64038 6.32673 6.60917 6.4021C6.57795 6.47746 6.5251 6.54189 6.45728 6.58722C6.38945 6.63255 6.30972 6.65675 6.22814 6.65677Z" fill="#0C169A" fill-opacity="0.5"/>
<path d="M8.46593 5.16608C8.38336 5.16608 8.30268 5.14131 8.23433 5.09496C8.16599 5.04861 8.11313 4.98282 8.08258 4.9061L7.43336 3.2759C7.39288 3.17425 7.39444 3.0607 7.43769 2.9602C7.48094 2.85971 7.56234 2.78051 7.66398 2.74003C7.76562 2.69955 7.87918 2.70111 7.97967 2.74436C8.08017 2.78761 8.15936 2.869 8.19984 2.97065L8.84906 4.60085C8.87401 4.66342 8.88324 4.73115 8.87597 4.79812C8.8687 4.86509 8.84513 4.92926 8.80733 4.98503C8.76954 5.04079 8.71866 5.08644 8.65915 5.118C8.59963 5.14957 8.5333 5.16607 8.46593 5.16608ZM4.72175 8.95657C4.67199 8.95656 4.62264 8.9475 4.57611 8.92984L3.12362 8.38122C3.07294 8.36208 3.02653 8.33315 2.98703 8.29608C2.94754 8.259 2.91573 8.21451 2.89343 8.16514C2.87113 8.11577 2.85878 8.0625 2.85707 8.00835C2.85537 7.95421 2.86434 7.90026 2.88349 7.84959C2.90262 7.79891 2.93156 7.7525 2.96863 7.713C3.0057 7.6735 3.0502 7.6417 3.09956 7.6194C3.14893 7.5971 3.20221 7.58475 3.25635 7.58304C3.3105 7.58133 3.36444 7.59031 3.41512 7.60946L4.86761 8.15808C4.91829 8.17722 4.9647 8.20615 5.0042 8.24322C5.04369 8.2803 5.0755 8.32479 5.0978 8.37416C5.1201 8.42352 5.13245 8.4768 5.13416 8.53094C5.13587 8.58509 5.12689 8.63904 5.10774 8.68971C5.07812 8.76813 5.02533 8.83567 4.95637 8.88335C4.88742 8.93102 4.80558 8.95656 4.72175 8.95657ZM3.2697 14.7578C3.17897 14.7579 3.09074 14.7281 3.01867 14.673C2.94659 14.6179 2.89469 14.5405 2.871 14.453C2.84731 14.3654 2.85315 14.2724 2.88763 14.1885C2.9221 14.1046 2.98328 14.0344 3.06169 13.9887L4.51418 13.1427C4.60867 13.0885 4.72075 13.0739 4.82598 13.102C4.93121 13.1302 5.02104 13.1988 5.07587 13.2929C5.1307 13.387 5.14607 13.499 5.11864 13.6044C5.0912 13.7098 5.02319 13.8001 4.92943 13.8556L3.47694 14.7016C3.41407 14.7384 3.34254 14.7578 3.2697 14.7578ZM7.54034 19.1427C7.47262 19.1427 7.40594 19.126 7.3462 19.0941C7.28645 19.0622 7.23548 19.0161 7.19778 18.9598C7.16008 18.9036 7.1368 18.8389 7.13002 18.7715C7.12323 18.7041 7.13313 18.6361 7.15886 18.5735L7.80054 17.0098C7.8211 16.9597 7.85133 16.9141 7.8895 16.8757C7.92768 16.8373 7.97306 16.8067 8.02304 16.7858C8.07302 16.7649 8.12663 16.7541 8.18081 16.7539C8.23498 16.7537 8.28866 16.7642 8.33877 16.7848C8.38889 16.8054 8.43446 16.8356 8.47289 16.8738C8.51132 16.912 8.54186 16.9574 8.56275 17.0073C8.58364 17.0573 8.59449 17.1109 8.59466 17.1651C8.59484 17.2193 8.58435 17.2729 8.56378 17.3231L7.92209 18.8867C7.89102 18.9624 7.83813 19.0272 7.77015 19.0728C7.70218 19.1183 7.62218 19.1427 7.54034 19.1427ZM14.5402 19.1427C14.4598 19.1427 14.3811 19.1192 14.3139 19.0751C14.2466 19.031 14.1937 18.9682 14.1617 18.8944L13.4824 17.3308C13.4394 17.2305 13.4379 17.1173 13.4781 17.016C13.5184 16.9146 13.5972 16.8333 13.6972 16.7898C13.7972 16.7464 13.9104 16.7443 14.012 16.7841C14.1135 16.8239 14.1952 16.9022 14.2391 17.0021L14.9184 18.5657C14.9456 18.6285 14.9569 18.697 14.9511 18.7652C14.9453 18.8334 14.9226 18.8991 14.8851 18.9563C14.8476 19.0135 14.7964 19.0605 14.7362 19.0931C14.676 19.1256 14.6087 19.1427 14.5402 19.1427ZM18.7135 14.5143C18.6573 14.5142 18.6016 14.5027 18.55 14.4803L17.1574 13.8779C17.1073 13.8566 17.062 13.8256 17.024 13.7867C16.986 13.7478 16.956 13.7018 16.9358 13.6513C16.9157 13.6008 16.9057 13.5469 16.9065 13.4925C16.9072 13.4381 16.9187 13.3845 16.9403 13.3345C16.9619 13.2846 16.9931 13.2395 17.0322 13.2017C17.0713 13.1639 17.1175 13.1342 17.1681 13.1144C17.2187 13.0945 17.2728 13.0848 17.3271 13.0859C17.3815 13.087 17.4351 13.0988 17.4849 13.1207L18.8775 13.7231C18.9646 13.7607 19.0361 13.8273 19.0799 13.9115C19.1237 13.9958 19.1371 14.0925 19.1178 14.1855C19.0986 14.2784 19.0478 14.3619 18.9742 14.4218C18.9005 14.4817 18.8085 14.5144 18.7135 14.5143ZM17.2063 8.68223C17.1262 8.68226 17.0478 8.65899 16.9808 8.61524C16.9137 8.5715 16.8608 8.50918 16.8286 8.43589C16.7845 8.33577 16.7819 8.22223 16.8216 8.12025C16.8612 8.01827 16.9397 7.9362 17.0398 7.8921L18.5475 7.22803C18.6473 7.18554 18.7599 7.18411 18.8608 7.22403C18.9617 7.26396 19.0428 7.34204 19.0866 7.44134C19.1303 7.54065 19.1332 7.65319 19.0945 7.75459C19.0559 7.85599 18.9788 7.93808 18.8801 7.98307L17.3724 8.64714C17.32 8.67026 17.2635 8.68221 17.2063 8.68223ZM13.7462 5.23769C13.682 5.23772 13.6188 5.22278 13.5614 5.19406C13.504 5.16535 13.4541 5.12364 13.4157 5.07226C13.3773 5.02088 13.3514 4.96125 13.34 4.8981C13.3287 4.83495 13.3322 4.77002 13.3504 4.70848L13.852 3.00673C13.9165 2.78821 14.1458 2.66309 14.3644 2.72771C14.4693 2.75865 14.5576 2.83 14.6099 2.92606C14.6623 3.02213 14.6743 3.13505 14.6434 3.23998L14.1417 4.94174C14.1165 5.02712 14.0644 5.10207 13.9931 5.15541C13.9218 5.20874 13.8352 5.23761 13.7462 5.23769Z" fill="#0C169A"/>
</g>
<defs>
<clipPath id="clip0_723_570">
<rect width="22" height="22" fill="white"/>
</clipPath>
</defs>
</svg>
