<svg width="17" height="17" viewBox="0 0 17 17" fill="none" xmlns="http://www.w3.org/2000/svg">
<path d="M16.9128 8.45638C16.9128 3.78609 13.1267 0 8.45638 0C3.78609 0 0 3.78609 0 8.45638C0 12.4221 2.73039 15.7498 6.41365 16.6638V11.0406H4.66995V8.45638H6.41365V7.34284C6.41365 4.46463 7.71627 3.13055 10.5421 3.13055C11.0779 3.13055 12.0023 3.23575 12.3805 3.34061V5.68302C12.1809 5.66205 11.8342 5.65157 11.4036 5.65157C10.0171 5.65157 9.48129 6.17688 9.48129 7.54241V8.45638H12.2435L11.7689 11.0406H9.48129V16.8509C13.6679 16.3452 16.9128 12.78 16.9128 8.45638Z" fill="white" fill-opacity="0.69"/>
</svg>
