<svg width="18" height="17" viewBox="0 0 18 17" fill="none" xmlns="http://www.w3.org/2000/svg">
<path d="M8.8196 0C6.52296 0 6.23474 0.0100422 5.33271 0.0510913C4.43245 0.0923166 3.81795 0.234843 3.28026 0.443965C2.72407 0.659957 2.25227 0.948886 1.78223 1.4191C1.31184 1.88914 1.02291 2.36094 0.806215 2.91695C0.596565 3.45482 0.453862 4.0695 0.413342 4.96941C0.372997 5.87143 0.362427 6.15983 0.362427 8.45647C0.362427 10.7531 0.372645 11.0404 0.413518 11.9425C0.454919 12.8427 0.597446 13.4572 0.806391 13.9949C1.02256 14.5511 1.31149 15.0229 1.7817 15.493C2.25157 15.9633 2.72337 16.253 3.2792 16.469C3.81724 16.6781 4.43192 16.8206 5.33201 16.8618C6.23403 16.9029 6.52208 16.9129 8.81854 16.9129C11.1153 16.9129 11.4027 16.9029 12.3047 16.8618C13.205 16.8206 13.8202 16.6781 14.3582 16.469C14.9142 16.253 15.3853 15.9633 15.8552 15.493C16.3256 15.0229 16.6145 14.5511 16.8312 13.9951C17.0391 13.4572 17.1818 12.8426 17.2241 11.9426C17.2646 11.0406 17.2752 10.7531 17.2752 8.45647C17.2752 6.15983 17.2646 5.87161 17.2241 4.96958C17.1818 4.06932 17.0391 3.45482 16.8312 2.91713C16.6145 2.36094 16.3256 1.88914 15.8552 1.4191C15.3848 0.94871 14.9144 0.659781 14.3577 0.443965C13.8186 0.234843 13.2037 0.0923166 12.3035 0.0510913C11.4015 0.0100422 11.1143 0 8.81695 0H8.8196ZM8.06098 1.52393C8.28613 1.52357 8.53736 1.52393 8.8196 1.52393C11.0775 1.52393 11.3451 1.53203 12.2367 1.57255C13.0612 1.61025 13.5087 1.74802 13.8068 1.86377C14.2014 2.01704 14.4828 2.20027 14.7786 2.49624C15.0746 2.79222 15.2578 3.0741 15.4114 3.46874C15.5272 3.76648 15.6651 4.21396 15.7026 5.03847C15.7431 5.92992 15.752 6.19771 15.752 8.45453C15.752 10.7113 15.7431 10.9791 15.7026 11.8706C15.6649 12.6951 15.5272 13.1426 15.4114 13.4403C15.2581 13.835 15.0746 14.116 14.7786 14.4118C14.4826 14.7077 14.2016 14.891 13.8068 15.0442C13.5091 15.1605 13.0612 15.2979 12.2367 15.3356C11.3453 15.3761 11.0775 15.385 8.8196 15.385C6.56154 15.385 6.29393 15.3761 5.40248 15.3356C4.57797 15.2976 4.13049 15.1598 3.83222 15.0441C3.43758 14.8908 3.1557 14.7076 2.85973 14.4116C2.56375 14.1156 2.38053 13.8344 2.2269 13.4396C2.11115 13.1419 1.97321 12.6944 1.93568 11.8699C1.89516 10.9784 1.88706 10.7106 1.88706 8.45242C1.88706 6.19419 1.89516 5.92781 1.93568 5.03636C1.97338 4.21185 2.11115 3.76436 2.2269 3.46627C2.38017 3.07164 2.56375 2.78975 2.85973 2.49378C3.1557 2.1978 3.43758 2.01458 3.83222 1.86095C4.13031 1.74467 4.57797 1.60726 5.40248 1.56938C6.18259 1.53414 6.48491 1.52357 8.06098 1.52181V1.52393ZM13.3336 2.92805C12.7733 2.92805 12.3188 3.38206 12.3188 3.94248C12.3188 4.50272 12.7733 4.95725 13.3336 4.95725C13.8938 4.95725 14.3484 4.50272 14.3484 3.94248C14.3484 3.38223 13.8938 2.92805 13.3336 2.92805ZM8.8196 4.11372C6.42131 4.11372 4.47685 6.05818 4.47685 8.45647C4.47685 10.8548 6.42131 12.7983 8.8196 12.7983C11.2179 12.7983 13.1616 10.8548 13.1616 8.45647C13.1616 6.05818 11.2179 4.11372 8.8196 4.11372ZM8.8196 5.63765C10.3763 5.63765 11.6384 6.8996 11.6384 8.45647C11.6384 10.0132 10.3763 11.2753 8.8196 11.2753C7.26273 11.2753 6.00077 10.0132 6.00077 8.45647C6.00077 6.8996 7.26273 5.63765 8.8196 5.63765Z" fill="white" fill-opacity="0.69"/>
</svg>
