<svg width="17" height="17" viewBox="0 0 17 17" fill="none" xmlns="http://www.w3.org/2000/svg">
<path d="M15.792 0C16.4338 0 17 0.566275 17 1.24581V15.7047C17 16.3842 16.4338 16.9128 15.792 16.9128H1.25758C0.615804 16.9128 0.0872803 16.3842 0.0872803 15.7047V1.24581C0.0872803 0.566275 0.615804 0 1.25758 0H15.792ZM5.18376 14.4966V6.45554H2.69215V14.4966H5.18376ZM3.93795 5.32299C4.73074 5.32299 5.37252 4.68121 5.37252 3.88842C5.37252 3.09564 4.73074 2.41611 3.93795 2.41611C3.10741 2.41611 2.46564 3.09564 2.46564 3.88842C2.46564 4.68121 3.10741 5.32299 3.93795 5.32299ZM14.5839 14.4966V10.0797C14.5839 7.92785 14.0932 6.22903 11.5638 6.22903C10.3557 6.22903 9.5252 6.90856 9.18543 7.55034H9.14768V6.45554H6.76933V14.4966H9.26094V10.5327C9.26094 9.47567 9.4497 8.45638 10.771 8.45638C12.0546 8.45638 12.0546 9.66443 12.0546 10.5705V14.4966H14.5839Z" fill="white" fill-opacity="0.69"/>
</svg>
