<svg width="97" height="32" viewBox="0 0 97 32" fill="none" xmlns="http://www.w3.org/2000/svg">
<g clip-path="url(#clip0_723_543)">
<path d="M0.0205078 0H9.27171C11.4684 0 13.1372 0.527811 14.2782 1.58343C15.4192 2.64076 15.9898 4.16099 15.9898 6.14583C15.9898 7.35006 15.7728 8.3476 15.3407 9.14017C14.9068 9.93274 14.2475 10.6023 13.361 11.1523C14.2475 11.3214 15.0025 11.5794 15.6259 11.9278C16.2494 12.2763 16.755 12.7033 17.1462 13.2106C17.5373 13.7179 17.8157 14.2885 17.9866 14.9222C18.1557 15.5559 18.2394 16.2323 18.2394 16.9497C18.2394 18.0702 18.0446 19.0627 17.6535 19.9287C17.2623 20.7947 16.714 21.5241 16.0051 22.1151C15.298 22.7061 14.4371 23.1502 13.4225 23.4457C12.4078 23.7412 11.2685 23.8898 10.0011 23.8898H0.0205078V0ZM6.22954 9.3776H7.37057C9.31441 9.3776 10.2846 8.60724 10.2846 7.0648C10.2846 5.52237 9.3127 4.752 7.37057 4.752H6.22954V9.3776ZM6.22954 19.0729H7.59262C9.15556 19.0729 10.2744 18.8731 10.9508 18.4717C11.6272 18.0702 11.9654 17.4263 11.9654 16.5381C11.9654 15.6498 11.6272 15.0076 10.9508 14.6062C10.2744 14.2048 9.15556 14.0049 7.59262 14.0049H6.22954V19.0746V19.0729Z" fill="white"/>
<path d="M32.369 7.63524H38.1356V23.888H32.369V22.0826C31.1442 23.625 29.4857 24.3954 27.3949 24.3954C26.2112 24.3954 25.1248 24.1784 24.1307 23.7463C23.1383 23.3141 22.2722 22.706 21.5326 21.9237C20.793 21.1431 20.2174 20.2241 19.8057 19.1668C19.3941 18.1112 19.1874 16.9599 19.1874 15.713C19.1874 14.5514 19.3872 13.448 19.7886 12.4026C20.19 11.3572 20.7486 10.4434 21.4677 9.66279C22.1851 8.88217 23.0409 8.26383 24.0333 7.80947C25.0257 7.35511 26.1241 7.12793 27.3283 7.12793C29.3558 7.12793 31.0349 7.83509 32.3656 9.25113V7.63524H32.369ZM25.1453 15.7147C25.1453 16.2425 25.241 16.7344 25.4306 17.1871C25.6202 17.6414 25.8798 18.0377 26.2061 18.3759C26.534 18.7141 26.9235 18.9772 27.3778 19.1685C27.8322 19.3581 28.3224 19.4538 28.8502 19.4538C29.378 19.4538 29.8375 19.3581 30.2919 19.1685C30.7463 18.9789 31.1357 18.7141 31.4637 18.3759C31.7916 18.0377 32.0547 17.6466 32.2562 17.2042C32.4561 16.76 32.5569 16.2852 32.5569 15.7779C32.5569 15.2706 32.4561 14.7906 32.2562 14.3362C32.0547 13.8819 31.7916 13.4856 31.4637 13.1474C31.1357 12.8092 30.7445 12.5461 30.2919 12.3548C29.8375 12.1652 29.3575 12.0695 28.8502 12.0695C28.3429 12.0695 27.8305 12.1652 27.3778 12.3548C26.9235 12.5444 26.5323 12.8092 26.2061 13.1474C25.8781 13.4856 25.6202 13.8716 25.4306 14.3038C25.241 14.7376 25.1453 15.2074 25.1453 15.713V15.7147Z" fill="white"/>
<path d="M46.6575 21.6709L38.8001 7.63525H45.4533L49.7936 15.9675L54.0075 7.63525H60.5975L47.544 31.9999H41.1129L46.6575 21.6709Z" fill="white"/>
<path d="M66.7143 7.63525V16.7925C66.7143 18.7996 67.6862 19.8022 69.6283 19.8022C71.5705 19.8022 72.5441 18.7996 72.5441 16.7925V7.63525H78.2783V17.9011C78.2783 20.0977 77.554 21.7461 76.1073 22.8444C74.6605 23.9427 72.4997 24.4927 69.6283 24.4927C66.757 24.4927 64.5962 23.9427 63.1494 22.8444C61.7026 21.7461 60.9784 20.0994 60.9784 17.9011V7.63525H66.7126H66.7143Z" fill="white"/>
<path d="M86.9914 12.4197V23.8897H81.2572V12.4197H79.3561V7.63524H81.2572V2.75684H86.9914V7.63695H90.2539V12.4214H86.9914V12.4197Z" fill="white"/>
<path d="M97.0027 7.63525V23.8881H91.2686V7.63525H97.0027Z" fill="white"/>
<path d="M57.3213 27.0686L56.0743 30.1432H55.6234L54.3765 27.0686H54.7762C54.8206 27.0686 54.8564 27.0789 54.8821 27.1011C54.9094 27.1233 54.9299 27.1506 54.9436 27.183L55.7361 29.1884C55.7788 29.3011 55.8181 29.4309 55.854 29.5778C55.8694 29.5061 55.8864 29.4361 55.9035 29.3712C55.9206 29.3062 55.9411 29.2448 55.9616 29.1901L56.7508 27.1848C56.7627 27.1557 56.7815 27.1301 56.8105 27.1062C56.8396 27.0823 56.8754 27.0703 56.9164 27.0703H57.3179L57.3213 27.0686Z" fill="white"/>
<path d="M60.4404 30.1432H60.0544C60.01 30.1432 59.9741 30.133 59.9485 30.1108C59.9211 30.0886 59.9006 30.0612 59.887 30.0288L59.6308 29.349H58.307L58.0507 30.0288C58.0388 30.0578 58.02 30.0834 57.991 30.1074C57.9619 30.1313 57.9261 30.1432 57.8851 30.1432H57.499L58.7186 27.0686H59.2242L60.4438 30.1432H60.4404ZM59.4941 28.9902L59.0722 27.8663C59.038 27.7792 59.0039 27.6699 58.968 27.5349C58.9526 27.6015 58.9356 27.663 58.9168 27.7194C58.898 27.7758 58.8809 27.8253 58.8655 27.868L58.4436 28.9885H59.4958L59.4941 28.9902Z" fill="white"/>
<path d="M63.0024 29.7247V30.1432H61.226V27.0686H61.7247V29.7247H63.0007H63.0024Z" fill="white"/>
<path d="M64.9737 29.7401C65.0916 29.7401 65.1975 29.7196 65.2914 29.6803C65.3854 29.641 65.464 29.5847 65.5289 29.5146C65.5938 29.4429 65.6433 29.3575 65.6775 29.2567C65.7116 29.1559 65.7287 29.0449 65.7287 28.9219V27.0686H66.2258V28.9219C66.2258 29.103 66.1968 29.2704 66.1387 29.4241C66.0806 29.5778 65.9986 29.7111 65.8893 29.8221C65.7817 29.9331 65.6501 30.022 65.4947 30.0852C65.3393 30.1484 65.1668 30.1808 64.972 30.1808C64.7773 30.1808 64.6048 30.1484 64.4493 30.0852C64.2956 30.022 64.1641 29.9348 64.0548 29.8221C63.9472 29.7111 63.8635 29.5778 63.8054 29.4241C63.7473 29.2704 63.7183 29.103 63.7183 28.9219V27.0686H64.2187V28.9202C64.2187 29.0432 64.2358 29.1542 64.27 29.255C64.3042 29.3558 64.3537 29.4412 64.4169 29.5129C64.4801 29.5847 64.5587 29.641 64.6526 29.6803C64.7466 29.7196 64.8525 29.7401 64.9703 29.7401H64.9737Z" fill="white"/>
<path d="M69.2661 29.7401V30.1432H67.3462V27.0686H69.2627V27.4717H67.8467V28.3975H68.9775V28.7887H67.8467V29.7384H69.2644L69.2661 29.7401Z" fill="white"/>
<path d="M72.2246 30.1432H71.7224V27.0686H72.2246V30.1432Z" fill="white"/>
<path d="M75.9278 27.0686V30.1432H75.6733C75.6357 30.1432 75.6015 30.1364 75.5742 30.1227C75.5469 30.1091 75.5213 30.0869 75.4973 30.0561L73.808 27.8868C73.8114 27.9278 73.8148 27.9688 73.8183 28.0098C73.82 28.0508 73.8217 28.0884 73.8217 28.1225V30.1449H73.381V27.0703H73.6406C73.6611 27.0703 73.6799 27.0703 73.6953 27.0737C73.7106 27.0754 73.7243 27.0806 73.7363 27.0857C73.7499 27.0908 73.7619 27.0993 73.7721 27.1113C73.7841 27.1233 73.7961 27.1369 73.808 27.154L75.4991 29.325C75.4956 29.2806 75.4922 29.2379 75.4888 29.1952C75.4871 29.1525 75.4854 29.1132 75.4854 29.0756V27.0703H75.9227L75.9278 27.0686Z" fill="white"/>
<path d="M79.6601 27.0686L78.4132 30.1432H77.9623L76.7153 27.0686H77.115C77.1594 27.0686 77.1953 27.0789 77.2209 27.1011C77.2483 27.1233 77.2688 27.1506 77.2824 27.183L78.075 29.1884C78.1177 29.3011 78.157 29.4309 78.1929 29.5778C78.2082 29.5061 78.2253 29.4361 78.2424 29.3712C78.2595 29.3062 78.28 29.2448 78.3005 29.1901L79.0896 27.1848C79.1016 27.1557 79.1204 27.1301 79.1494 27.1062C79.1784 27.0823 79.2143 27.0703 79.2553 27.0703H79.6567L79.6601 27.0686Z" fill="white"/>
<path d="M82.3641 29.7401V30.1432H80.4442V27.0686H82.3607V27.4717H80.9447V28.3975H82.0755V28.7887H80.9447V29.7384H82.3624L82.3641 29.7401Z" fill="white"/>
<path d="M84.9399 27.5947C84.9245 27.6203 84.9074 27.6391 84.8903 27.6511C84.8733 27.663 84.851 27.6698 84.8254 27.6698C84.7981 27.6698 84.7673 27.6579 84.7349 27.6357C84.7007 27.6135 84.6597 27.5879 84.6102 27.5605C84.5607 27.5332 84.5026 27.5076 84.436 27.4837C84.3694 27.4597 84.2891 27.4478 84.1968 27.4478C84.1114 27.4478 84.0363 27.458 83.9714 27.4802C83.9065 27.5024 83.8518 27.5315 83.8074 27.5691C83.763 27.6084 83.7305 27.6528 83.7083 27.704C83.6861 27.7553 83.6759 27.8133 83.6759 27.8731C83.6759 27.9517 83.6964 28.0166 83.7373 28.0678C83.7783 28.1191 83.833 28.1635 83.9013 28.2011C83.9697 28.2387 84.0465 28.2711 84.1336 28.2984C84.2207 28.3258 84.3096 28.3565 84.4001 28.3873C84.4906 28.418 84.5795 28.4539 84.6666 28.4932C84.7537 28.5324 84.8305 28.5837 84.8989 28.6452C84.9672 28.7067 85.0201 28.7818 85.0628 28.8689C85.1038 28.9578 85.1243 29.0654 85.1243 29.1918C85.1243 29.3284 85.1004 29.4565 85.0543 29.5761C85.0065 29.6957 84.9399 29.7999 84.851 29.8887C84.7622 29.9775 84.6529 30.0476 84.5231 30.0988C84.3933 30.15 84.2447 30.1757 84.0773 30.1757C83.9782 30.1757 83.8825 30.1654 83.7903 30.1466C83.6964 30.1278 83.6075 30.1005 83.5238 30.0663C83.4384 30.0322 83.3598 29.9895 83.2864 29.9399C83.213 29.8904 83.1463 29.834 83.0883 29.7743L83.2334 29.5351C83.2471 29.5146 83.2625 29.4992 83.283 29.4873C83.3035 29.4753 83.3257 29.4702 83.3496 29.4702C83.3821 29.4702 83.4179 29.4856 83.4589 29.5163C83.4982 29.5471 83.546 29.5812 83.6024 29.6171C83.6588 29.653 83.7271 29.6871 83.8057 29.7179C83.886 29.7486 83.9799 29.764 84.0909 29.764C84.272 29.764 84.4121 29.7196 84.5111 29.6308C84.6102 29.5419 84.6597 29.4207 84.6597 29.2652C84.6597 29.1781 84.6392 29.1081 84.5982 29.0534C84.5572 28.9988 84.5026 28.9526 84.4343 28.9151C84.3659 28.8775 84.2891 28.8467 84.202 28.8211C84.1148 28.7955 84.026 28.7682 83.9372 28.7391C83.8484 28.7101 83.7596 28.6759 83.6724 28.6366C83.5853 28.5974 83.5085 28.5461 83.4401 28.4829C83.3718 28.4197 83.3189 28.3411 83.2762 28.2472C83.2352 28.1532 83.2147 28.0371 83.2147 27.8987C83.2147 27.7877 83.2369 27.6801 83.2796 27.5759C83.3223 27.4717 83.3855 27.3795 83.4692 27.2992C83.5529 27.2189 83.6554 27.154 83.7783 27.1062C83.9013 27.0583 84.0397 27.0344 84.1968 27.0344C84.3728 27.0344 84.535 27.0618 84.6819 27.1181C84.8288 27.1745 84.9569 27.2531 85.0628 27.3555L84.9416 27.5947H84.9399Z" fill="white"/>
<path d="M88.2042 27.4854H87.246V30.1432H86.7489V27.4854H85.7889V27.0686H88.2059V27.4854H88.2042Z" fill="white"/>
<path d="M89.5604 30.1432H89.0582V27.0686H89.5604V30.1432Z" fill="white"/>
<path d="M93.2619 27.0686V30.1432H93.0074C92.9698 30.1432 92.9356 30.1364 92.9083 30.1227C92.881 30.1091 92.8554 30.0869 92.8314 30.0561L91.1421 27.8868C91.1455 27.9278 91.149 27.9688 91.1524 28.0098C91.1541 28.0508 91.1558 28.0884 91.1558 28.1225V30.1449H90.7151V27.0703H90.9747C90.9952 27.0703 91.014 27.0703 91.0294 27.0737C91.0448 27.0754 91.0584 27.0806 91.0704 27.0857C91.084 27.0908 91.096 27.0993 91.1062 27.1113C91.1182 27.1233 91.1302 27.1369 91.1421 27.154L92.8332 29.325C92.8297 29.2806 92.8263 29.2379 92.8229 29.1952C92.8212 29.1525 92.8195 29.1132 92.8195 29.0756V27.0703H93.2568L93.2619 27.0686Z" fill="white"/>
<path d="M96.9394 28.6298V29.846C96.6337 30.0663 96.2767 30.1774 95.8719 30.1774C95.6225 30.1774 95.397 30.1381 95.1954 30.0612C94.9939 29.9844 94.8214 29.875 94.6796 29.7367C94.5378 29.5983 94.4268 29.4326 94.3499 29.2396C94.273 29.0483 94.2355 28.8365 94.2355 28.6059C94.2355 28.3753 94.2731 28.1618 94.3465 27.9688C94.42 27.7757 94.5259 27.6101 94.6642 27.4717C94.8026 27.3333 94.9683 27.2257 95.163 27.1489C95.3577 27.072 95.5763 27.0344 95.8206 27.0344C95.9436 27.0344 96.0597 27.0447 96.1657 27.0635C96.2716 27.0823 96.3706 27.1096 96.4612 27.1437C96.5517 27.1779 96.6354 27.2189 96.7123 27.2667C96.7891 27.3146 96.8592 27.3692 96.9241 27.429L96.7806 27.6579C96.7584 27.6938 96.7293 27.716 96.6935 27.7245C96.6576 27.733 96.62 27.7245 96.579 27.6989C96.538 27.675 96.4936 27.6493 96.4475 27.622C96.4014 27.5947 96.3484 27.5691 96.2886 27.5469C96.2289 27.5229 96.1605 27.5042 96.082 27.4888C96.0034 27.4734 95.9111 27.4666 95.8052 27.4666C95.643 27.4666 95.4961 27.4939 95.3663 27.5469C95.2364 27.5998 95.1237 27.6767 95.0315 27.7757C94.9392 27.8748 94.8675 27.9944 94.8179 28.1362C94.7684 28.2779 94.7428 28.4351 94.7428 28.6076C94.7428 28.7921 94.7684 28.9561 94.8214 29.0995C94.8743 29.2447 94.9495 29.366 95.0451 29.4668C95.1408 29.5676 95.2586 29.6444 95.397 29.6957C95.5336 29.7486 95.6874 29.7743 95.8565 29.7743C95.9829 29.7743 96.0956 29.7606 96.1947 29.7333C96.2938 29.7059 96.3911 29.6684 96.4868 29.6205V29.009H96.058C96.0256 29.009 96 29.0005 95.9812 28.9817C95.9624 28.9646 95.9538 28.9407 95.9538 28.9117V28.6281H96.9377L96.9394 28.6298Z" fill="white"/>
<path d="M6.21928 19.0645H0V23.8984H6.21928V19.0645Z" fill="#01A777"/>
<path d="M97.0009 2.03442H91.2513V6.50288H97.0009V2.03442Z" fill="#01A777"/>
</g>
<defs>
<clipPath id="clip0_723_543">
<rect width="97.0027" height="32" fill="white"/>
</clipPath>
</defs>
</svg>
