<svg width="82" height="27" viewBox="0 0 82 27" fill="none" xmlns="http://www.w3.org/2000/svg">
<g clip-path="url(#clip0_723_501)">
<path d="M0.017334 0H7.82303C9.67646 0 11.0845 0.44534 12.0473 1.33602C13.01 2.22814 13.4914 3.51084 13.4914 5.18554C13.4914 6.20161 13.3084 7.04329 12.9437 7.71202C12.5777 8.38075 12.0213 8.94571 11.2733 9.40979C12.0213 9.55247 12.6584 9.7701 13.1844 10.0641C13.7105 10.3581 14.1371 10.7184 14.4671 11.1465C14.7971 11.5745 15.0321 12.0559 15.1762 12.5906C15.3189 13.1253 15.3895 13.696 15.3895 14.3013C15.3895 15.2468 15.2252 16.0841 14.8951 16.8148C14.5651 17.5455 14.1025 18.1609 13.5044 18.6596C12.9077 19.1583 12.1813 19.533 11.3252 19.7823C10.4691 20.0317 9.50783 20.157 8.43844 20.157H0.017334V0ZM5.25621 7.91235H6.21895C7.85907 7.91235 8.67768 7.26236 8.67768 5.96093C8.67768 4.6595 7.85763 4.0095 6.21895 4.0095H5.25621V7.91235ZM5.25621 16.0928H6.40631C7.72503 16.0928 8.66904 15.9241 9.23976 15.5855C9.81049 15.2468 10.0959 14.7034 10.0959 13.954C10.0959 13.2045 9.81049 12.6626 9.23976 12.324C8.66904 11.9853 7.72503 11.8166 6.40631 11.8166H5.25621V16.0942V16.0928Z" fill="#000080"/>
<path d="M27.3112 6.44245H32.1768V20.1558H27.3112V18.6324C26.2779 19.9338 24.8784 20.5838 23.1144 20.5838C22.1156 20.5838 21.199 20.4008 20.3602 20.0361C19.5228 19.6715 18.7921 19.1584 18.1681 18.4983C17.544 17.8397 17.0583 17.0643 16.711 16.1722C16.3637 15.2815 16.1893 14.3101 16.1893 13.258C16.1893 12.278 16.3579 11.347 16.6966 10.4649C17.0353 9.58289 17.5066 8.81183 18.1133 8.15319C18.7186 7.49455 19.4407 6.97282 20.278 6.58946C21.1154 6.20609 22.0421 6.0144 23.0582 6.0144C24.7689 6.0144 26.1856 6.61107 27.3084 7.80585V6.44245H27.3112ZM21.2163 13.2595C21.2163 13.7048 21.297 14.1199 21.457 14.5018C21.6169 14.8852 21.836 15.2195 22.1113 15.5049C22.388 15.7903 22.7166 16.0122 23.1 16.1736C23.4833 16.3336 23.897 16.4143 24.3423 16.4143C24.7876 16.4143 25.1753 16.3336 25.5587 16.1736C25.9421 16.0137 26.2707 15.7903 26.5474 15.5049C26.8241 15.2195 27.0461 14.8895 27.2161 14.5162C27.3847 14.1415 27.4698 13.7408 27.4698 13.3128C27.4698 12.8847 27.3847 12.4798 27.2161 12.0964C27.0461 11.713 26.8241 11.3787 26.5474 11.0933C26.2707 10.8079 25.9406 10.586 25.5587 10.4246C25.1753 10.2646 24.7704 10.1839 24.3423 10.1839C23.9143 10.1839 23.4819 10.2646 23.1 10.4246C22.7166 10.5845 22.3866 10.8079 22.1113 11.0933C21.8346 11.3787 21.6169 11.7044 21.457 12.069C21.297 12.4351 21.2163 12.8314 21.2163 13.258V13.2595Z" fill="#000080"/>
<path d="M39.3674 18.285L32.7377 6.44238H38.3513L42.0135 13.4727L45.569 6.44238H51.1293L40.1154 27.0001H34.6892L39.3674 18.285Z" fill="#000080"/>
<path d="M56.2901 6.44238V14.1688C56.2901 15.8623 57.1102 16.7083 58.7488 16.7083C60.3875 16.7083 61.209 15.8623 61.209 14.1688V6.44238H66.0472V15.1042C66.0472 16.9576 65.4361 18.3484 64.2154 19.2751C62.9947 20.2018 61.1715 20.6659 58.7488 20.6659C56.3261 20.6659 54.503 20.2018 53.2822 19.2751C52.0615 18.3484 51.4504 16.959 51.4504 15.1042V6.44238H56.2886H56.2901Z" fill="#000080"/>
<path d="M73.399 10.4792V20.1571H68.5608V10.4792H66.9567V6.44232H68.5608V2.32617H73.399V6.44377H76.1517V10.4807H73.399V10.4792Z" fill="#000080"/>
<path d="M81.8461 6.44238V20.1557H77.0079V6.44238H81.8461Z" fill="#000080"/>
<path d="M48.3649 22.8391L47.3128 25.4333H46.9323L45.8802 22.8391H46.2175C46.255 22.8391 46.2852 22.8478 46.3069 22.8665C46.3299 22.8852 46.3472 22.9083 46.3587 22.9357L47.0275 24.6277C47.0635 24.7228 47.0966 24.8323 47.1269 24.9563C47.1399 24.8957 47.1543 24.8367 47.1687 24.7819C47.1831 24.7271 47.2004 24.6752 47.2177 24.6291L47.8836 22.9371C47.8936 22.9126 47.9095 22.891 47.934 22.8708C47.9585 22.8506 47.9888 22.8406 48.0234 22.8406H48.362L48.3649 22.8391Z" fill="#000080"/>
<path d="M50.9967 25.4333H50.671C50.6335 25.4333 50.6032 25.4247 50.5816 25.4059C50.5586 25.3872 50.5413 25.3641 50.5297 25.3368L50.3135 24.7632H49.1966L48.9804 25.3368C48.9703 25.3613 48.9545 25.3829 48.93 25.4031C48.9055 25.4232 48.8752 25.4333 48.8406 25.4333H48.5149L49.5439 22.8391H49.9705L50.9996 25.4333H50.9967ZM50.1982 24.4605L49.8423 23.5122C49.8134 23.4387 49.7846 23.3464 49.7544 23.2326C49.7414 23.2888 49.727 23.3407 49.7111 23.3882C49.6953 23.4358 49.6808 23.4776 49.6679 23.5136L49.3119 24.4591H50.1997L50.1982 24.4605Z" fill="#000080"/>
<path d="M53.1585 25.0802V25.4333H51.6597V22.8391H52.0805V25.0802H53.1571H53.1585Z" fill="#000080"/>
<path d="M54.8218 25.0932C54.9212 25.0932 55.0106 25.0759 55.0898 25.0428C55.1691 25.0096 55.2354 24.962 55.2902 24.903C55.3449 24.8424 55.3867 24.7704 55.4155 24.6853C55.4444 24.6003 55.4588 24.5066 55.4588 24.4028V22.8391H55.8782V24.4028C55.8782 24.5556 55.8537 24.6969 55.8047 24.8266C55.7557 24.9563 55.6865 25.0687 55.5943 25.1624C55.5035 25.2561 55.3925 25.331 55.2613 25.3843C55.1302 25.4376 54.9846 25.465 54.8203 25.465C54.656 25.465 54.5104 25.4376 54.3793 25.3843C54.2496 25.331 54.1386 25.2575 54.0464 25.1624C53.9556 25.0687 53.885 24.9563 53.836 24.8266C53.787 24.6969 53.7625 24.5556 53.7625 24.4028V22.8391H54.1847V24.4014C54.1847 24.5052 54.1991 24.5989 54.228 24.6839C54.2568 24.7689 54.2986 24.841 54.3519 24.9015C54.4052 24.962 54.4715 25.0096 54.5508 25.0428C54.6301 25.0759 54.7194 25.0932 54.8189 25.0932H54.8218Z" fill="#000080"/>
<path d="M58.4434 25.0932V25.4333H56.8235V22.8391H58.4405V23.1792H57.2458V23.9604H58.1999V24.2904H57.2458V25.0918H58.442L58.4434 25.0932Z" fill="#000080"/>
<path d="M60.9396 25.4333H60.5159V22.8391H60.9396V25.4333Z" fill="#000080"/>
<path d="M64.0642 22.8391V25.4333H63.8494C63.8177 25.4333 63.7889 25.4276 63.7658 25.416C63.7428 25.4045 63.7211 25.3858 63.701 25.3598L62.2756 23.5295C62.2785 23.564 62.2814 23.5986 62.2842 23.6332C62.2857 23.6678 62.2871 23.6995 62.2871 23.7283V25.4348H61.9153V22.8406H62.1343C62.1516 22.8406 62.1675 22.8406 62.1805 22.8434C62.1934 22.8449 62.205 22.8492 62.2151 22.8535C62.2266 22.8578 62.2367 22.8651 62.2453 22.8751C62.2554 22.8852 62.2655 22.8968 62.2756 22.9112L63.7024 24.743C63.6995 24.7055 63.6966 24.6695 63.6938 24.6334C63.6923 24.5974 63.6909 24.5643 63.6909 24.5326V22.8406H64.0598L64.0642 22.8391Z" fill="#000080"/>
<path d="M67.2133 22.8391L66.1612 25.4333H65.7807L64.7286 22.8391H65.0659C65.1034 22.8391 65.1336 22.8478 65.1552 22.8665C65.1783 22.8852 65.1956 22.9083 65.2071 22.9357L65.8759 24.6277C65.9119 24.7228 65.945 24.8323 65.9753 24.9563C65.9883 24.8957 66.0027 24.8367 66.0171 24.7819C66.0315 24.7271 66.0488 24.6752 66.0661 24.6291L66.7319 22.9371C66.742 22.9126 66.7579 22.891 66.7824 22.8708C66.8069 22.8506 66.8372 22.8406 66.8717 22.8406H67.2104L67.2133 22.8391Z" fill="#000080"/>
<path d="M69.4947 25.0932V25.4333H67.8748V22.8391H69.4918V23.1792H68.297V23.9604H69.2511V24.2904H68.297V25.0918H69.4933L69.4947 25.0932Z" fill="#000080"/>
<path d="M71.6681 23.283C71.6552 23.3046 71.6407 23.3205 71.6263 23.3306C71.6119 23.3407 71.5932 23.3464 71.5716 23.3464C71.5485 23.3464 71.5226 23.3364 71.4952 23.3176C71.4664 23.2989 71.4318 23.2773 71.39 23.2542C71.3482 23.2311 71.2992 23.2095 71.243 23.1893C71.1868 23.1692 71.119 23.1591 71.0412 23.1591C70.9691 23.1591 70.9057 23.1677 70.851 23.1865C70.7962 23.2052 70.7501 23.2297 70.7126 23.2614C70.6751 23.2946 70.6477 23.332 70.629 23.3753C70.6103 23.4185 70.6016 23.4675 70.6016 23.5179C70.6016 23.5842 70.6189 23.639 70.6535 23.6822C70.6881 23.7255 70.7342 23.763 70.7919 23.7947C70.8495 23.8264 70.9144 23.8538 70.9879 23.8768C71.0614 23.8999 71.1363 23.9258 71.2127 23.9518C71.2891 23.9777 71.364 24.008 71.4375 24.0411C71.511 24.0743 71.5759 24.1175 71.6335 24.1694C71.6912 24.2213 71.7359 24.2847 71.7719 24.3582C71.8065 24.4331 71.8238 24.5239 71.8238 24.6306C71.8238 24.7459 71.8036 24.854 71.7647 24.9549C71.7243 25.0557 71.6681 25.1437 71.5932 25.2186C71.5182 25.2935 71.426 25.3526 71.3165 25.3959C71.2069 25.4391 71.0815 25.4607 70.9403 25.4607C70.8567 25.4607 70.776 25.4521 70.6982 25.4362C70.6189 25.4204 70.544 25.3973 70.4734 25.3685C70.4013 25.3397 70.335 25.3036 70.273 25.2618C70.211 25.22 70.1548 25.1725 70.1058 25.122L70.2283 24.9203C70.2399 24.903 70.2528 24.89 70.2701 24.8799C70.2874 24.8698 70.3062 24.8655 70.3263 24.8655C70.3537 24.8655 70.384 24.8785 70.4186 24.9044C70.4517 24.9304 70.4921 24.9592 70.5396 24.9894C70.5872 25.0197 70.6449 25.0485 70.7112 25.0745C70.7789 25.1004 70.8582 25.1134 70.9518 25.1134C71.1046 25.1134 71.2228 25.0759 71.3064 25.001C71.39 24.926 71.4318 24.8237 71.4318 24.6925C71.4318 24.619 71.4145 24.56 71.3799 24.5138C71.3453 24.4677 71.2992 24.4288 71.2415 24.3971C71.1839 24.3654 71.119 24.3394 71.0455 24.3178C70.972 24.2962 70.8971 24.2732 70.8221 24.2486C70.7472 24.2241 70.6722 24.1953 70.5987 24.1622C70.5252 24.129 70.4604 24.0858 70.4027 24.0325C70.3451 23.9791 70.3004 23.9128 70.2644 23.8336C70.2298 23.7543 70.2125 23.6563 70.2125 23.5396C70.2125 23.4459 70.2312 23.3551 70.2673 23.2672C70.3033 23.1793 70.3566 23.1014 70.4272 23.0337C70.4979 22.966 70.5843 22.9112 70.6881 22.8708C70.7919 22.8305 70.9086 22.8103 71.0412 22.8103C71.1896 22.8103 71.3266 22.8334 71.4505 22.8809C71.5745 22.9285 71.6825 22.9948 71.7719 23.0813L71.6696 23.283H71.6681Z" fill="#000080"/>
<path d="M74.4224 23.1908H73.6139V25.4333H73.1945V23.1908H72.3845V22.8391H74.4239V23.1908H74.4224Z" fill="#000080"/>
<path d="M75.5667 25.4333H75.1429V22.8391H75.5667V25.4333Z" fill="#000080"/>
<path d="M78.69 22.8391V25.4333H78.4753C78.4436 25.4333 78.4147 25.4276 78.3917 25.416C78.3686 25.4045 78.347 25.3858 78.3268 25.3598L76.9014 23.5295C76.9043 23.564 76.9072 23.5986 76.9101 23.6332C76.9115 23.6678 76.913 23.6995 76.913 23.7283V25.4348H76.5411V22.8406H76.7602C76.7775 22.8406 76.7933 22.8406 76.8063 22.8434C76.8193 22.8449 76.8308 22.8492 76.8409 22.8535C76.8524 22.8578 76.8625 22.8651 76.8712 22.8751C76.8813 22.8852 76.8914 22.8968 76.9014 22.9112L78.3283 24.743C78.3254 24.7055 78.3225 24.6695 78.3196 24.6334C78.3182 24.5974 78.3167 24.5643 78.3167 24.5326V22.8406H78.6857L78.69 22.8391Z" fill="#000080"/>
<path d="M81.7928 24.1564V25.1826C81.5348 25.3685 81.2336 25.4622 80.8921 25.4622C80.6816 25.4622 80.4914 25.429 80.3213 25.3642C80.1513 25.2993 80.0057 25.2071 79.8861 25.0903C79.7664 24.9736 79.6728 24.8338 79.6079 24.6709C79.5431 24.5095 79.5114 24.3308 79.5114 24.1362C79.5114 23.9417 79.5431 23.7615 79.605 23.5987C79.667 23.4358 79.7564 23.296 79.8731 23.1793C79.9898 23.0625 80.1296 22.9717 80.2939 22.9069C80.4582 22.842 80.6427 22.8103 80.8488 22.8103C80.9526 22.8103 81.0506 22.8189 81.1399 22.8348C81.2293 22.8507 81.3129 22.8737 81.3893 22.9025C81.4657 22.9314 81.5363 22.966 81.6011 23.0063C81.666 23.0467 81.7251 23.0928 81.7798 23.1432L81.6588 23.3364C81.6401 23.3666 81.6156 23.3854 81.5853 23.3926C81.555 23.3998 81.5233 23.3926 81.4887 23.3709C81.4541 23.3508 81.4167 23.3291 81.3777 23.3061C81.3388 23.283 81.2942 23.2614 81.2437 23.2427C81.1933 23.2225 81.1356 23.2066 81.0693 23.1937C81.003 23.1807 80.9252 23.1749 80.8358 23.1749C80.6989 23.1749 80.575 23.198 80.4654 23.2427C80.3559 23.2873 80.2608 23.3522 80.183 23.4358C80.1051 23.5194 80.0446 23.6203 80.0028 23.7399C79.961 23.8595 79.9394 23.9921 79.9394 24.1377C79.9394 24.2933 79.961 24.4317 80.0057 24.5527C80.0504 24.6753 80.1138 24.7776 80.1945 24.8626C80.2752 24.9476 80.3746 25.0125 80.4914 25.0557C80.6067 25.1004 80.7364 25.122 80.8791 25.122C80.9857 25.122 81.0808 25.1105 81.1644 25.0874C81.248 25.0644 81.3302 25.0327 81.4109 24.9923V24.4764H81.0491C81.0218 24.4764 81.0001 24.4692 80.9843 24.4533C80.9684 24.4389 80.9612 24.4187 80.9612 24.3942V24.155H81.7914L81.7928 24.1564Z" fill="#000080"/>
<path d="M5.24752 16.0854H0V20.1641H5.24752V16.0854Z" fill="#01A777"/>
<path d="M81.8443 1.71655H76.9932V5.48681H81.8443V1.71655Z" fill="#01A777"/>
</g>
<defs>
<clipPath id="clip0_723_501">
<rect width="81.846" height="27" fill="white"/>
</clipPath>
</defs>
</svg>
